# File created by Blade
# Date/Time:  Tue Jan 27 20:07:51 2015
# Frame Rate: 120.000 fps
#------------------------------------------------------
:FULLY-SPECIFIED
:DEGREES
3717
root 4.662617 33.568465 -5.495174 27.962377 -36.717526 -25.325672
Spine 3.072595 23.115946 -3.249008
Head -3.915414 0.503911 14.630143
LeftShoulder -13.900065 -2.937250 32.259248
LeftArm -14.453412 -40.912694 -67.428174
LeftForeArm -52.434555 -0.000000 122.208875
LeftHand 9.941928 -0.000000 -44.191882
LeftHandThumb1 -26.253704 0.000000 33.147579
RightShoulder -10.474895 -4.628630 -20.761455
RightArm 24.554885 -37.002261 88.561380
RightForeArm -18.314088 -0.000000 16.138950
RightHand 17.368593 0.000000 2.705634
RightHandThumb1 -24.326973 -0.000000 -32.862282
LeftUpLeg -4.502363 22.196229 8.505847
LeftLeg -7.498679 -0.000000 0.000000
LeftFoot -16.430113 18.432130 -17.057823
LeftToeBase 19.743143 -0.000000 -0.000000
RightUpLeg 13.789161 -55.297454 -28.523891
RightLeg 63.341953 -0.000000 -0.000000
RightFoot 25.932616 -31.557068 25.858673
RightToeBase 14.978408 -0.000000 -0.000000
3718
root 4.674415 33.572582 -5.507540 28.022328 -36.413704 -25.215624
Spine 2.990120 22.906397 -3.186349
Head -3.961416 0.418060 14.774005
LeftShoulder -13.856236 -2.950500 32.270998
LeftArm -14.398628 -40.892664 -67.487342
LeftForeArm -52.505457 -0.000000 122.109707
LeftHand 9.985745 -0.000000 -44.392297
LeftHandThumb1 -26.253704 0.000000 33.147579
RightShoulder -10.532820 -4.659273 -20.715629
RightArm 24.546630 -36.900648 88.527776
RightForeArm -18.326539 0.000000 16.159340
RightHand 17.367271 -0.000000 2.726627
RightHandThumb1 -24.326973 -0.000000 -32.862282
LeftUpLeg -4.783247 22.138766 8.458261
LeftLeg -7.478697 -0.000000 0.000000
LeftFoot -16.365475 18.069999 -17.219633
LeftToeBase 19.862031 -0.000000 -0.000000
RightUpLeg 13.760033 -53.966668 -28.357703
RightLeg 62.847021 -0.000000 -0.000000
RightFoot 26.214577 -31.535967 25.270019
RightToeBase 15.135086 -0.000000 -0.000000
3719
root 4.687676 33.576603 -5.521133 28.083875 -36.134457 -25.107585
Spine 2.915601 22.719749 -3.130491
Head -4.013595 0.316932 14.899314
LeftShoulder -13.806588 -3.029388 32.291731
LeftArm -14.442959 -40.838716 -67.475369
LeftForeArm -52.563730 -0.000000 122.013976
LeftHand 10.010123 -0.000000 -44.467588
LeftHandThumb1 -26.253704 0.000000 33.147579
RightShoulder -10.580160 -4.708627 -20.681242
RightArm 24.548937 -36.747494 88.519473
RightForeArm -18.331975 -0.000000 16.168902
RightHand 17.404943 0.000000 2.772804
RightHandThumb1 -24.326973 -0.000000 -32.862282
LeftUpLeg -5.052943 22.070821 8.407738
LeftLeg -7.463355 -0.000000 0.000000
LeftFoot -16.419049 17.700200 -17.558786
LeftToeBase 20.648015 -0.000000 -0.000000
RightUpLeg 13.696247 -52.519269 -28.153049
RightLeg 62.374589 -0.000000 -0.000000
RightFoot 25.897823 -31.642184 25.449195
RightToeBase 16.084806 -0.000000 -0.000000
3720
root 4.699647 33.581695 -5.534414 28.146285 -35.863615 -25.021224
Spine 2.847648 22.557964 -3.065983
Head -4.055329 0.202305 15.032719
LeftShoulder -13.747138 -3.061936 32.303227
LeftArm -14.423274 -40.804965 -67.511458
LeftForeArm -52.593692 -0.000000 121.932649
LeftHand 10.053184 -0.000000 -44.524912
LeftHandThumb1 -26.253704 0.000000 33.147579
RightShoulder -10.641239 -4.739177 -20.641681
RightArm 24.552504 -36.656254 88.484099
RightForeArm -18.360895 -0.000000 16.172153
RightHand 17.421472 -0.000000 2.766071
RightHandThumb1 -24.326973 -0.000000 -32.862282
LeftUpLeg -5.296934 22.053162 8.369302
LeftLeg -7.484376 -0.000000 0.000000
LeftFoot -16.300043 17.379247 -17.634843
LeftToeBase 20.873762 -0.000000 -0.000000
RightUpLeg 13.670215 -51.057219 -27.984821
RightLeg 61.869088 -0.000000 -0.000000
RightFoot 25.768970 -31.828734 25.389049
RightToeBase 16.448273 -0.000000 -0.000000
3721
root 4.707441 33.586131 -5.545123 28.224691 -35.596521 -24.928598
Spine 2.721664 22.401576 -3.038069
Head -4.066566 0.038953 15.192207
LeftShoulder -13.688625 -3.091489 32.332298
LeftArm -14.398120 -40.753210 -67.548997
LeftForeArm -52.626274 -0.000000 121.847077
LeftHand 10.086458 -0.000000 -44.594580
LeftHandThumb1 -26.253704 0.000000 33.147579
RightShoulder -10.705529 -4.792104 -20.593354
RightArm 24.550938 -36.575050 88.469689
RightForeArm -18.366592 -0.000000 16.161028
RightHand 17.435134 0.000000 2.751595
RightHandThumb1 -24.326973 -0.000000 -32.862282
LeftUpLeg -5.534376 22.043480 8.312435
LeftLeg -7.534118 -0.000000 0.000000
LeftFoot -16.124696 17.048745 -17.642222
LeftToeBase 21.558096 -0.000000 -0.000000
RightUpLeg 13.646109 -49.515116 -27.798515
RightLeg 61.365174 -0.000000 -0.000000
RightFoot 25.840508 -31.701517 25.100976
RightToeBase 16.390326 -0.000000 -0.000000
3722
root 4.717433 33.590825 -5.556492 28.299752 -35.350687 -24.849973
Spine 2.619566 22.248492 -2.993713
Head -4.074397 -0.110063 15.336027
LeftShoulder -13.638704 -3.127073 32.348329
LeftArm -14.399291 -40.706499 -67.571702
LeftForeArm -52.636719 -0.000000 121.775591
LeftHand 10.143033 -0.000000 -44.639684
LeftHandThumb1 -26.253704 0.000000 33.147579
RightShoulder -10.751148 -4.866987 -20.554373
RightArm 24.606329 -36.527551 88.412842
RightForeArm -18.414475 -0.000000 16.148284
RightHand 17.435575 -0.000000 2.670016
RightHandThumb1 -24.326973 -0.000000 -32.862282
LeftUpLeg -5.761566 22.027789 8.258673
LeftLeg -7.583281 -0.000000 0.000000
LeftFoot -15.990590 16.839930 -17.660132
LeftToeBase 21.283166 -0.000000 -0.000000
RightUpLeg 13.663954 -48.058549 -27.692355
RightLeg 60.844890 -0.000000 -0.000000
RightFoot 25.912526 -31.880570 24.773959
RightToeBase 16.152466 -0.000000 -0.000000
3723
root 4.728470 33.596149 -5.570561 28.403145 -35.065611 -24.760968
Spine 2.477624 22.042701 -2.959818
Head -4.084761 -0.227980 15.490708
LeftShoulder -13.611222 -3.149154 32.365555
LeftArm -14.378486 -40.650834 -67.604624
LeftForeArm -52.677828 -0.000000 121.715833
LeftHand 10.141767 0.000000 -44.663013
LeftHandThumb1 -26.253704 0.000000 33.147579
RightShoulder -10.797663 -4.915464 -20.526294
RightArm 24.636298 -36.491712 88.372996
RightForeArm -18.412329 -0.000000 16.139431
RightHand 17.462457 0.000000 2.771628
RightHandThumb1 -24.326973 -0.000000 -32.862282
LeftUpLeg -6.061767 21.919570 8.203189
LeftLeg -7.583453 -0.000000 0.000000
LeftFoot -15.885507 16.706256 -17.654997
LeftToeBase 21.331708 -0.000000 -0.000000
RightUpLeg 13.658514 -46.580978 -27.538015
RightLeg 60.321279 -0.000000 -0.000000
RightFoot 25.764619 -32.079519 24.869648
RightToeBase 16.296666 -0.000000 -0.000000
3724
root 4.737560 33.601354 -5.584929 28.469542 -34.783666 -24.690484
Spine 2.395276 21.857647 -2.890432
Head -4.097831 -0.364218 15.596401
LeftShoulder -13.577229 -3.190691 32.374644
LeftArm -14.345416 -40.610092 -67.649300
LeftForeArm -52.711732 0.000000 121.652471
LeftHand 10.148349 -0.000000 -44.637923
LeftHandThumb1 -26.253704 0.000000 33.147579
RightShoulder -10.832310 -4.922646 -20.514857
RightArm 24.611833 -36.430187 88.375129
RightForeArm -18.414200 -0.000000 16.128225
RightHand 17.456014 -0.000000 2.768793
RightHandThumb1 -24.326973 -0.000000 -32.862282
LeftUpLeg -6.312414 21.780882 8.186974
LeftLeg -7.558082 -0.000000 0.000000
LeftFoot -15.829893 16.668532 -17.616282
LeftToeBase 20.783491 -0.000000 -0.000000
RightUpLeg 13.769779 -45.108458 -27.479465
RightLeg 59.788241 -0.000000 -0.000000
RightFoot 25.706145 -32.206476 24.839903
RightToeBase 16.189772 -0.000000 -0.000000
3725
root 4.745481 33.604421 -5.593798 28.528347 -34.542744 -24.619928
Spine 2.303358 21.709975 -2.827763
Head -4.089299 -0.473152 15.672792
LeftShoulder -13.457614 -3.241054 32.334943
LeftArm -14.431363 -40.665211 -67.566521
LeftForeArm -52.808683 -0.000000 121.634636
LeftHand 10.164603 -0.000000 -44.688947
LeftHandThumb1 -26.253704 0.000000 33.147579
RightShoulder -10.886057 -4.969636 -20.515223
RightArm 24.614184 -36.382520 88.383919
RightForeArm -18.434166 -0.000000 16.106586
RightHand 17.426537 -0.000000 2.799656
RightHandThumb1 -24.326973 -0.000000 -32.862282
LeftUpLeg -6.516880 21.745647 8.139484
LeftLeg -7.583087 -0.000000 0.000000
LeftFoot -15.736994 16.456880 -17.601733
LeftToeBase 21.201066 -0.000000 -0.000000
RightUpLeg 13.895711 -43.612159 -27.466881
RightLeg 59.256674 -0.000000 -0.000000
RightFoot 25.506995 -32.370451 24.952806
RightToeBase 16.511411 -0.000000 -0.000000
3726
root 4.754725 33.607615 -5.601489 28.592619 -34.312788 -24.542727
Spine 2.195453 21.551595 -2.787015
Head -4.075666 -0.576097 15.749421
LeftShoulder -13.419547 -3.293118 32.304682
LeftArm -14.442564 -40.642844 -67.558049
LeftForeArm -52.861651 -0.000000 121.602439
LeftHand 10.188174 -0.000000 -44.719673
LeftHandThumb1 -26.253704 0.000000 33.147579
RightShoulder -10.931939 -4.988247 -20.503916
RightArm 24.605795 -36.365307 88.375300
RightForeArm -18.414217 -0.000000 16.068577
RightHand 17.453128 -0.000000 2.817073
RightHandThumb1 -24.326973 -0.000000 -32.862282
LeftUpLeg -6.728626 21.696347 8.089547
LeftLeg -7.611442 -0.000000 0.000000
LeftFoot -15.616912 16.324948 -17.578651
LeftToeBase 20.874354 -0.000000 -0.000000
RightUpLeg 14.056694 -42.182344 -27.533461
RightLeg 58.730952 -0.000000 -0.000000
RightFoot 25.308209 -32.596261 25.089921
RightToeBase 16.427258 -0.000000 -0.000000
3727
root 4.764033 33.611518 -5.611732 28.651722 -34.061801 -24.469924
Spine 2.111297 21.384470 -2.720691
Head -4.076944 -0.681888 15.812596
LeftShoulder -13.386347 -3.303183 32.248769
LeftArm -14.367208 -40.644147 -67.607969
LeftForeArm -52.962973 -0.000000 121.560645
LeftHand 10.214119 -0.000000 -44.787258
LeftHandThumb1 -26.253704 0.000000 33.147579
RightShoulder -10.978225 -4.997092 -20.505380
RightArm 24.566972 -36.307458 88.402131
RightForeArm -18.398656 -0.000000 16.058264
RightHand 17.431167 0.000000 2.829662
RightHandThumb1 -24.326973 -0.000000 -32.862282
LeftUpLeg -6.953164 21.576211 8.062088
LeftLeg -7.597492 -0.000000 0.000000
LeftFoot -15.480335 16.078848 -17.535225
LeftToeBase 21.696601 -0.000000 -0.000000
RightUpLeg 14.277510 -40.805013 -27.635486
RightLeg 58.165139 -0.000000 -0.000000
RightFoot 25.125469 -32.711779 25.160265
RightToeBase 16.255819 -0.000000 -0.000000
3728
root 4.770608 33.616860 -5.623417 28.724221 -33.810215 -24.421215
Spine 2.017791 21.234325 -2.652057
Head -4.091049 -0.801657 15.862053
LeftShoulder -13.341171 -3.400077 32.212378
LeftArm -14.401085 -40.625468 -67.592790
LeftForeArm -53.037671 -0.000000 121.558517
LeftHand 10.229834 -0.000000 -44.847810
LeftHandThumb1 -26.253704 0.000000 33.147579
RightShoulder -11.018884 -5.013456 -20.490029
RightArm 24.501985 -36.203565 88.450571
RightForeArm -18.395159 -0.000000 16.072517
RightHand 17.418626 -0.000000 2.874013
RightHandThumb1 -24.326973 -0.000000 -32.862282
LeftUpLeg -7.180711 21.439109 8.069492
LeftLeg -7.571272 -0.000000 0.000000
LeftFoot -15.401914 16.019209 -17.494470
LeftToeBase 21.451692 -0.000000 -0.000000
RightUpLeg 14.510847 -39.486702 -27.740456
RightLeg 57.605074 -0.000000 -0.000000
RightFoot 24.915324 -32.850163 25.306944
RightToeBase 16.396296 -0.000000 -0.000000
